<?xml version="1.0" encoding="UTF-8" standalone="no"?>
<svg
        xmlns:dc="http://purl.org/dc/elements/1.1/"
        xmlns:cc="http://creativecommons.org/ns#"
        xmlns:rdf="http://www.w3.org/1999/02/22-rdf-syntax-ns#"
        xmlns:sodipodi="http://sodipodi.sourceforge.net/DTD/sodipodi-0.dtd"
        xmlns:inkscape="http://www.inkscape.org/namespaces/inkscape"
        xmlns="http://www.w3.org/2000/svg"
        width="220mm"
        height="146mm"
        viewBox="-5 15 220 136"
        version="1.1"
        id="svg8"
        inkscape:version="1.0.2-2 (e86c870879, 2021-01-15)"
        sodipodi:docname="lefaservis.svg">
    <defs
            id="defs2">
        <pattern
                id="EMFhbasepattern"
                patternUnits="userSpaceOnUse"
                width="6"
                height="6"
                x="0"
                y="0"/>
    </defs>
    <sodipodi:namedview
            id="base"
            pagecolor="#203f7e"
            bordercolor="#666666"
            borderopacity="1.0"
            inkscape:pageopacity="0.0"
            inkscape:pageshadow="2"
            inkscape:zoom="0.7"
            inkscape:cx="377.70826"
            inkscape:cy="560"
            inkscape:document-units="mm"
            inkscape:current-layer="layer1"
            inkscape:document-rotation="0"
            showgrid="false"
            inkscape:window-width="1583"
            inkscape:window-height="1208"
            inkscape:window-x="64"
            inkscape:window-y="64"
            inkscape:window-maximized="0"/>
    <metadata
            id="metadata5">
        <rdf:RDF>
            <cc:Work
                    rdf:about="">
                <dc:format>image/svg+xml</dc:format>
                <dc:type
                        rdf:resource="http://purl.org/dc/dcmitype/StillImage"/>
                <dc:title></dc:title>
            </cc:Work>
        </rdf:RDF>
    </metadata>
    <g
            inkscape:label="Vrstva 1"
            inkscape:groupmode="layer"
            id="layer1">
        <text
                xml:space="preserve"
                style="font-style:normal;font-variant:normal;font-weight:400;font-size:40.8957px;line-height:125%;font-family:Calibri;text-align:start;letter-spacing:0px;word-spacing:0px;text-anchor:start;fill:#000000;fill-opacity:1;stroke:none;stroke-width:2.78438"
                x="3.1921"
                y="54.951824"
                id="text17"
                transform="scale(1.0126388,0.9875189)"><tspan
         sodipodi:role="line"
         x="3.1921"
         y="54.951824"
         id="tspan15"
         style="stroke-width:2.78438"><tspan
           dx="0"
           dy="0"
           style="font-style:normal;font-variant:normal;font-weight:400;font-size:40.8957px;font-family:Calibri;fill:#000000;stroke-width:2.78438"
           id="tspan13"> </tspan></tspan></text>
        <path
                style="fill:#203f7e;fill-opacity:1;fill-rule:evenodd;stroke:none;stroke-width:2.78438"
                d="m 206.70842,27.053863 c 0,1.704233 -0.47956,3.270978 -1.35298,4.727772 -0.90155,1.456794 -2.1422,2.583735 -3.69242,3.435905 -1.52199,0.879189 -3.21319,1.264327 -5.01716,1.264327 -1.77571,0 -3.46682,-0.384514 -5.01704,-1.264327 -1.55023,-0.85217 -2.79046,-1.979111 -3.6642,-3.435905 -0.90155,-1.456794 -1.35296,-3.023539 -1.35296,-4.727772 0,-1.676696 0.45077,-3.24344 1.35296,-4.727773 0.87386,-1.456794 2.11397,-2.583736 3.6642,-3.435801 1.55022,-0.852169 3.24133,-1.264432 5.01704,-1.264432 1.80397,0 3.49517,0.412574 5.01716,1.264432 1.55022,0.852169 2.79045,1.979007 3.69242,3.435801 0.87385,1.484333 1.35298,3.051077 1.35298,4.727773 z m -1.94485,0 c 0,-2.088958 -0.81736,-3.875708 -2.36769,-5.387477 -1.57836,-1.484229 -3.52331,-2.226448 -5.75002,-2.226448 -2.2266,0 -4.17155,0.742011 -5.72177,2.226448 -1.57836,1.511769 -2.39583,3.298519 -2.39583,5.387477 0,2.116496 0.81736,3.875706 2.39583,5.387475 1.55022,1.511769 3.49517,2.226448 5.72177,2.226448 2.22671,0 4.17166,-0.71499 5.75002,-2.226448 1.55023,-1.511769 2.36769,-3.270979 2.36769,-5.387475 z M 192.0798,22.023777 c 1.6066,0 3.2132,0 4.8198,0 1.35296,0 2.33945,0.247338 2.95956,0.770071 0.59145,0.521693 0.90156,1.209352 0.90156,2.061522 0,0.686931 -0.22592,1.264328 -0.70441,1.759105 -0.45077,0.494675 -1.18385,0.852169 -2.19857,1.071967 0.42307,0.165238 0.73318,0.302416 0.93032,0.467654 0.25364,0.247337 0.53497,0.576773 0.84508,1.044531 0,0.03118 0.62022,0.989347 1.74758,2.913587 -1.0711,0 -2.11396,0 -3.15682,0 -1.01452,-1.924136 -1.71934,-3.078513 -2.08583,-3.46334 -0.33781,-0.357496 -0.67669,-0.549754 -1.04328,-0.549754 -0.0853,0 -0.19715,0 -0.33782,0.03118 0,1.319303 0,2.66625 0,3.985553 -0.87385,0 -1.77572,0 -2.6777,0 0,-3.380825 0,-6.734319 0,-10.087709 z m 2.6776,4.260431 c 0.39429,0 0.78966,0 1.15571,0 0.78966,0 1.32473,-0.110159 1.63473,-0.357496 0.31011,-0.220316 0.47955,-0.522733 0.47955,-0.907248 0,-0.357495 -0.14066,-0.659911 -0.45078,-0.907248 -0.3101,-0.220318 -0.81736,-0.329436 -1.55022,-0.329436 -0.42307,0 -0.84508,0 -1.26835,0 0,0.825149 0,1.676695 0,2.501324 z"
                id="path19"/>
        <path
                style="fill:none;stroke:#203f7e;stroke-width:0.44535px;stroke-linecap:round;stroke-linejoin:round;stroke-miterlimit:4;stroke-dasharray:none;stroke-opacity:1"
                d="m 206.70842,27.053863 c 0,1.704233 -0.47956,3.270978 -1.35298,4.727772 -0.90155,1.456794 -2.1422,2.583735 -3.69242,3.435905 -1.52199,0.879189 -3.21319,1.264327 -5.01716,1.264327 -1.77571,0 -3.46682,-0.384514 -5.01704,-1.264327 -1.55023,-0.85217 -2.79046,-1.979111 -3.6642,-3.435905 -0.90155,-1.456794 -1.35296,-3.023539 -1.35296,-4.727772 0,-1.676696 0.45077,-3.24344 1.35296,-4.727773 0.87386,-1.456794 2.11397,-2.583736 3.6642,-3.435801 1.55022,-0.852169 3.24133,-1.264432 5.01704,-1.264432 1.80397,0 3.49517,0.412574 5.01716,1.264432 1.55022,0.852169 2.79045,1.979007 3.69242,3.435801 0.87385,1.484333 1.35298,3.051077 1.35298,4.727773 z m -1.94485,0 c 0,-2.088958 -0.81736,-3.875708 -2.36769,-5.387477 -1.57836,-1.484229 -3.52331,-2.226448 -5.75002,-2.226448 -2.2266,0 -4.17155,0.742011 -5.72177,2.226448 -1.57836,1.511769 -2.39583,3.298519 -2.39583,5.387477 0,2.116496 0.81736,3.875706 2.39583,5.387475 1.55022,1.511769 3.49517,2.226448 5.72177,2.226448 2.22671,0 4.17166,-0.71499 5.75002,-2.226448 1.55023,-1.511769 2.36769,-3.270979 2.36769,-5.387475 z M 192.0798,22.023777 c 1.6066,0 3.2132,0 4.8198,0 1.35296,0 2.33945,0.247338 2.95956,0.770071 0.59145,0.521693 0.90156,1.209352 0.90156,2.061522 0,0.686931 -0.22592,1.264328 -0.70441,1.759105 -0.45077,0.494675 -1.18385,0.852169 -2.19857,1.071967 0.42307,0.165238 0.73318,0.302416 0.93032,0.467654 0.25364,0.247337 0.53497,0.576773 0.84508,1.044531 0,0.03118 0.62022,0.989347 1.74758,2.913587 -1.0711,0 -2.11396,0 -3.15682,0 -1.01452,-1.924136 -1.71934,-3.078513 -2.08583,-3.46334 -0.33781,-0.357496 -0.67669,-0.549754 -1.04328,-0.549754 -0.0853,0 -0.19715,0 -0.33782,0.03118 0,1.319303 0,2.66625 0,3.985553 -0.87385,0 -1.77572,0 -2.6777,0 0,-3.380825 0,-6.734319 0,-10.087709 z m 2.6776,4.260431 c 0.39429,0 0.78966,0 1.15571,0 0.78966,0 1.32473,-0.110159 1.63473,-0.357496 0.31011,-0.220316 0.47955,-0.522733 0.47955,-0.907248 0,-0.357495 -0.14066,-0.659911 -0.45078,-0.907248 -0.3101,-0.220318 -0.81736,-0.329436 -1.55022,-0.329436 -0.42307,0 -0.84508,0 -1.26835,0 0,0.825149 0,1.676695 0,2.501324 z"
                id="path21"/>

        <path
                style="fill:#203f7e;fill-opacity:1;fill-rule:evenodd;stroke:none;stroke-width:2.78438;image-rendering:optimizeQuality"
                d="M 58.369729,147.69712 H 3.4166103 V 71.692253 H 24.700245 l -0.02135,54.154527 h 33.690372 z"
                id="path27"/>
        <path
                style="fill:#203f7e;fill-opacity:1;fill-rule:evenodd;stroke:none;stroke-width:2.78438"
                d="M 92.248076,119.31313 H 113.09309 V 83.988425 h 12.4694 l -0.0213,-12.31758 H 113.09313 V 66.07968 l 0.0831,-0.899974 0.16709,-0.857366 0.22976,-0.749285 0.31331,-0.706677 0.39685,-0.599636 0.45952,-0.557027 0.54306,-0.449987 0.60573,-0.407379 0.68926,-0.321122 0.75194,-0.256691 0.8146,-0.193296 0.89814,-0.128865 h 6.7882 V 49.712626 H 104.7384 l -1.94248,0.107041 -1.77537,0.321122 -1.608287,0.51442 -1.462069,0.706677 -1.315868,0.87815 -1.127892,1.071135 -0.981691,1.220993 -0.793706,1.392465 -0.62661,1.520913 -0.459514,1.692388 -0.292425,1.799428 -0.104432,1.906469 v 8.825875 h -6.203372 v 12.317581 h 6.203372 z"
                id="path29"/>
        <path
                style="fill:#203f7e;fill-opacity:1;fill-rule:evenodd;stroke:none;stroke-width:2.78438"
                d="m 57.576038,71.692253 4.344438,0.214082 3.88494,0.557028 3.467211,0.942582 3.049466,1.306729 2.631737,1.628163 2.213999,1.949389 1.838038,2.249203 1.462075,2.549236 1.0861,2.827746 0.73105,3.106153 0.375969,3.363261 0.02127,3.598857 -0.271537,6.555048 -30.056063,-0.12886 1.315869,1.67098 1.545621,1.52091 1.733597,1.32814 1.900702,1.13537 2.088671,0.89996 2.214007,0.6859 2.360207,0.44998 2.443752,0.14966 2.527304,-0.10704 2.610841,-0.40739 2.652624,-0.7285 2.673497,-1.04962 0.04158,7.84038 -1.503845,0.87815 -1.608285,0.77111 -1.670942,0.66406 -1.733589,0.5352 -1.775382,0.47181 -1.81715,0.36374 -1.838037,0.27851 -1.83803,0.21408 -1.817158,0.14965 -1.796262,0.0831 -1.775381,0.0623 -1.712702,0.0208 -4.323558,-0.23591 -3.864052,-0.64224 -3.425435,-1.04962 -2.986809,-1.41388 -2.589961,-1.75661 -2.193111,-2.05643 -1.817149,-2.33505 -1.462077,-2.57064 -1.086116,-2.80623 -0.772818,-2.99902 -0.459522,-3.170482 -0.146208,-3.277527 0.146208,-3.299032 0.459522,-3.170382 0.772818,-2.977607 1.086116,-2.806336 1.462077,-2.570646 1.817149,-2.334939 2.193111,-2.056532 2.589961,-1.7351 2.986809,-1.413874 3.425435,-1.049726 3.864052,-0.642245 z m -8.187626,19.708173 0.981691,-2.142267 1.29498,-1.735099 1.524733,-1.349652 1.712718,-0.964404 1.838038,-0.578854 1.900694,-0.192256 1.921582,0.214081 1.838046,0.557029 1.733589,0.985191 1.566509,1.328242 1.294988,1.756509 1.002579,2.120858 H 49.388436 Z"
                id="path31"/>
        <path
                style="fill:#203f7e;fill-opacity:1;fill-rule:evenodd;stroke:none;stroke-width:2.78438"
                d="m 157.87437,85.916411 0.98148,0.06235 0.96123,0.256686 0.89836,0.385558 0.85679,0.514417 0.79393,0.642244 0.70973,0.77111 0.62661,0.856326 0.52217,0.964404 0.43906,1.049628 0.31331,1.113953 0.18756,1.156869 0.0852,1.242403 -0.0852,1.199688 -0.18756,1.178175 -0.31331,1.113953 -0.43906,1.027795 -0.52217,0.9644 -0.62661,0.85633 -0.70973,0.77111 -0.79393,0.64224 -0.85679,0.51443 -0.89836,0.38555 -0.96123,0.25669 -0.98148,0.0831 -1.00279,-0.0831 -0.96123,-0.25669 -0.91861,-0.38555 -0.85679,-0.51443 -0.77261,-0.64224 -0.70974,-0.77111 -0.62661,-0.85633 -0.52217,-0.9644 -0.43906,-1.027795 -0.31331,-1.113953 -0.18755,-1.178175 -0.064,-1.199688 0.064,-1.242403 0.18755,-1.156869 0.31331,-1.113953 0.43906,-1.049628 0.52217,-0.964404 0.62661,-0.856326 0.70974,-0.77111 0.77261,-0.642244 0.85679,-0.514417 0.91861,-0.385558 0.96123,-0.256686 z m 6.80907,24.313839 -0.98147,1.30673 -1.04436,1.2424 -1.1279,1.13536 -1.16967,1.02884 -1.25323,0.92076 -1.27411,0.83554 -1.33666,0.70668 -1.37855,0.57885 -1.39943,0.47077 -1.44121,0.34294 -1.4412,0.19331 -1.46199,0.0831 -2.69443,-0.23591 -2.54822,-0.64224 -2.44368,-1.0278 -2.2767,-1.41387 -2.10955,-1.7352 -1.90071,-2.03503 -1.67094,-2.31363 -1.4203,-2.57065 -1.14877,-2.78482 -0.85637,-2.97761 -0.52218,-3.149075 -0.1671,-3.256117 0.1671,-3.277526 0.52218,-3.127563 0.85637,-2.97771 1.14877,-2.784831 1.4203,-2.549124 1.67094,-2.335046 1.90071,-2.035021 2.10955,-1.735204 2.2767,-1.413874 2.44368,-1.027799 2.54822,-0.642245 2.69443,-0.235905 1.46209,0.08314 1.48288,0.193296 1.4412,0.342947 1.42033,0.471811 1.37854,0.599635 1.33677,0.706677 1.295,0.835542 1.23223,0.920758 1.16967,1.049623 1.12791,1.13536 1.04434,1.242504 0.96124,1.306722 -0.0214,-8.011838 h 18.71458 v 46.571253 h -18.71458 l -0.0214,-8.01185 z"
                id="path33"/>
        <path
                style="fill:#203f7e;fill-opacity:1;fill-rule:evenodd;stroke:none;stroke-width:2.78438"
                d="m 67.518134,141.14207 4.553326,-0.40738 0.08312,0.32112 0.08312,0.32112 0.08313,0.30034 0.104432,0.27852 0.12532,0.27851 0.125321,0.25669 0.146216,0.23591 0.167097,0.2359 0.167088,0.1933 0.167097,0.19329 0.208873,0.1933 0.187984,0.17147 0.229761,0.14966 0.229753,0.12885 0.22976,0.12887 0.250641,0.10704 0.250649,0.10704 0.292417,0.0831 0.271529,0.0624 0.292425,0.0623 0.313305,0.0416 0.313305,0.0208 0.334193,0.0208 0.334193,0.0207 0.375969,-0.0207 0.355073,-0.0208 0.355081,-0.0208 0.313305,-0.0416 0.313313,-0.0416 0.292417,-0.0623 0.271529,-0.0623 0.250649,-0.0831 0.250641,-0.10704 0.22976,-0.10704 0.208865,-0.10704 0.187984,-0.12887 0.187984,-0.14964 0.167097,-0.14965 0.167096,-0.17147 0.125321,-0.14965 0.125328,-0.17148 0.104433,-0.14965 0.08312,-0.17147 0.06286,-0.17147 0.06286,-0.17147 0.04158,-0.17148 0.02135,-0.1933 v -0.17147 -0.12887 -0.10704 l -0.02135,-0.10704 -0.02127,-0.12886 -0.02127,-0.0831 -0.04158,-0.10704 -0.04158,-0.10704 -0.06286,-0.10704 -0.04158,-0.0831 -0.06286,-0.0831 -0.08313,-0.0831 -0.08312,-0.0831 -0.08312,-0.10704 -0.08312,-0.0831 -0.104432,-0.0831 -0.125329,-0.0624 -0.12532,-0.0831 -0.12532,-0.0831 -0.146209,-0.0623 -0.146208,-0.0624 -0.167096,-0.0831 -0.167097,-0.0623 -0.187984,-0.0624 -0.208873,-0.0416 -0.146208,-0.0623 -0.167097,-0.0416 -0.208873,-0.0624 -0.25064,-0.0623 -0.250649,-0.0624 -0.313305,-0.0623 -0.313305,-0.0831 -0.355081,-0.0831 -0.375969,-0.0831 -0.417738,-0.10704 -0.438625,-0.0831 -0.48041,-0.10704 -0.605722,-0.14964 -0.563945,-0.12887 -0.543066,-0.14965 -0.522178,-0.17147 -0.480401,-0.14965 -0.459514,-0.17147 -0.417745,-0.17148 -0.396849,-0.17147 -0.355082,-0.1933 -0.334193,-0.1933 -0.313305,-0.19225 -0.271536,-0.1933 -0.334194,-0.30033 -0.292416,-0.30035 -0.292417,-0.30033 -0.250649,-0.32112 -0.208865,-0.32113 -0.187984,-0.34294 -0.167097,-0.36374 -0.125328,-0.34294 -0.104433,-0.38556 -0.08312,-0.36372 -0.04158,-0.40739 -0.02127,-0.38555 0.02127,-0.27851 0.02135,-0.25669 0.02127,-0.25669 0.06286,-0.25669 0.06286,-0.23591 0.06286,-0.25669 0.08312,-0.2359 0.104441,-0.25669 0.12532,-0.23591 0.12532,-0.2359 0.146209,-0.23591 0.146208,-0.21408 0.187985,-0.23591 0.187984,-0.21408 0.187985,-0.21408 0.208873,-0.19329 0.229752,-0.19331 0.229761,-0.17147 0.229753,-0.17147 0.271537,-0.17147 0.271529,-0.14965 0.271537,-0.12886 0.292416,-0.14966 0.292417,-0.10704 0.334193,-0.12886 0.334194,-0.10704 0.355081,-0.0831 0.355081,-0.0831 0.355081,-0.0623 0.375961,-0.0624 0.375969,-0.0623 0.396858,-0.0416 0.417737,-0.0208 0.396857,-0.0416 h 0.438626 0.417737 0.710162 l 0.689274,0.0416 0.647498,0.0624 0.62661,0.0623 0.584842,0.10704 0.563945,0.14965 0.522178,0.14965 0.50129,0.17147 0.480401,0.21408 0.438633,0.21408 0.39685,0.2567 0.375969,0.27851 0.355081,0.27851 0.334193,0.32113 0.292417,0.32112 0.271529,0.34295 0.229761,0.34294 0.208872,0.38555 0.167097,0.38556 0.167096,0.40738 0.104433,0.40737 0.104432,0.44999 0.06286,0.44999 0.02135,0.47181 -4.678647,0.14965 -0.04158,-0.27851 -0.08312,-0.23591 -0.06286,-0.23591 -0.104432,-0.21408 -0.08312,-0.21408 -0.104441,-0.19225 -0.104432,-0.19331 -0.12532,-0.17147 -0.12532,-0.14965 -0.146217,-0.14964 -0.146208,-0.12887 -0.167097,-0.10704 -0.167096,-0.12887 -0.167097,-0.10704 -0.208864,-0.0831 -0.208873,-0.0831 -0.208873,-0.0831 -0.25064,-0.0623 -0.250649,-0.0623 -0.271529,-0.0416 -0.271537,-0.0208 -0.292417,-0.0416 H 77.045398 76.711205 76.3979 76.084595 l -0.313305,0.0416 -0.292417,0.0208 -0.271537,0.0624 -0.271529,0.0416 -0.271536,0.0623 -0.229753,0.0831 -0.229761,0.0831 -0.229753,0.10704 -0.208872,0.10704 -0.208873,0.12887 -0.104432,0.0624 -0.104441,0.10704 -0.08312,0.0831 -0.08312,0.10704 -0.08312,0.0831 -0.06286,0.10704 -0.06286,0.10704 -0.04158,0.12887 -0.02127,0.10704 -0.04158,0.12886 v 0.12886 l -0.02127,0.14965 0.02127,0.10704 v 0.12887 l 0.04158,0.10704 0.02127,0.10704 0.04158,0.10704 0.06286,0.10704 0.04158,0.10704 0.08312,0.10704 0.08312,0.0831 0.08312,0.10704 0.08312,0.0831 0.10444,0.10704 0.167097,0.10704 0.208872,0.10704 0.229753,0.10705 0.271529,0.10704 0.292425,0.10704 0.355081,0.12886 0.355073,0.10704 0.417746,0.10704 0.438625,0.12886 0.480401,0.10704 0.50129,0.12887 0.543066,0.12886 0.563954,0.10705 0.543057,0.12886 0.50129,0.10704 0.480401,0.12887 0.459521,0.12886 0.438626,0.12887 0.417737,0.10704 0.375969,0.12886 0.355081,0.12886 0.334193,0.12887 0.313305,0.12886 0.271537,0.14966 0.271529,0.10704 0.271529,0.14964 0.229761,0.12887 0.25064,0.14965 0.229761,0.17147 0.208873,0.17148 0.208864,0.17147 0.187985,0.17147 0.187985,0.1933 0.187984,0.21408 0.167097,0.19226 0.146208,0.2359 0.167097,0.21408 0.12532,0.23591 0.125329,0.23591 0.12532,0.25668 0.08312,0.2567 0.08312,0.27851 0.08312,0.27851 0.06286,0.27851 0.04158,0.30034 0.02135,0.30034 0.02127,0.32112 v 0.32113 0.27851 l -0.02127,0.30034 -0.04158,0.27851 -0.06286,0.30034 -0.06286,0.27851 -0.08312,0.27851 -0.104433,0.27852 -0.12532,0.25669 -0.125329,0.27852 -0.167096,0.25668 -0.167097,0.25669 -0.187984,0.27851 -0.167097,0.23591 -0.208864,0.23591 -0.208873,0.2359 -0.229761,0.21408 -0.250641,0.1933 -0.250648,0.21408 -0.271529,0.17148 -0.271529,0.17147 -0.292425,0.17148 -0.313305,0.14964 -0.313305,0.12887 -0.355081,0.14965 -0.334193,0.10704 -0.355073,0.10704 -0.355082,0.10704 -0.375969,0.0831 -0.396856,0.0831 -0.417738,0.0624 -0.417745,0.0416 -0.438625,0.0623 -0.459514,0.0208 -0.459513,0.0416 h -0.48041 l -0.501281,0.0208 -0.710163,-0.0208 -0.689274,-0.0416 -0.668386,-0.0623 -0.62661,-0.0831 -0.60573,-0.10704 -0.584834,-0.12886 -0.543065,-0.17148 -0.522178,-0.17147 -0.480402,-0.21408 -0.459513,-0.23591 -0.438625,-0.25669 -0.417746,-0.27851 -0.375961,-0.32112 -0.334193,-0.34295 -0.334193,-0.36374 -0.292425,-0.38555 -0.271529,-0.38555 -0.250641,-0.42816 -0.208872,-0.44999 -0.187985,-0.47181 -0.167096,-0.4926 -0.146209,-0.51442 -0.10444,-0.5352 -0.104433,-0.55703 v 0 z"
                id="path35"/>
        <path
                style="fill:#203f7e;fill-opacity:1;fill-rule:evenodd;stroke:none;stroke-width:2.78438"
                d="m 90.222069,147.80426 v -20.56502 h 17.085371 v 3.4703 H 94.87982 v 4.56285 h 11.55038 v 3.4704 H 94.87982 v 5.56966 h 12.88714 v 3.49181 z"
                id="path37"/>
        <path
                style="fill:#203f7e;fill-opacity:1;fill-rule:evenodd;stroke:none;stroke-width:2.78438"
                d="m 111.67279,147.80426 v -20.56502 h 9.81679 0.58483 0.58484 l 0.54306,0.0208 0.52218,0.0416 0.50129,0.0207 0.45951,0.0416 0.43863,0.0624 0.39685,0.0623 0.37597,0.0624 0.35508,0.0623 0.31331,0.0831 0.3133,0.10704 0.27154,0.0831 0.27153,0.10704 0.25064,0.12886 0.25065,0.12887 0.22975,0.14964 0.22976,0.14966 0.22976,0.17147 0.20887,0.19329 0.18798,0.1933 0.20888,0.1933 0.16709,0.2359 0.18799,0.23591 0.14621,0.23591 0.1462,0.2359 0.14621,0.25669 0.12533,0.25669 0.10443,0.25669 0.0831,0.25669 0.0831,0.27851 0.0629,0.27852 0.0416,0.27851 0.0416,0.27852 0.0213,0.30033 0.0213,0.30034 -0.0213,0.36373 -0.0416,0.38555 -0.0416,0.36374 -0.0831,0.34294 -0.0831,0.34295 -0.12532,0.32112 -0.14621,0.32112 -0.1462,0.30034 -0.18799,0.30034 -0.20887,0.27851 -0.22975,0.2567 -0.22976,0.27851 -0.27153,0.2359 -0.29243,0.21408 -0.3133,0.21408 -0.31331,0.19226 -0.35508,0.1933 -0.37596,0.14965 -0.37597,0.14964 -0.41775,0.12887 -0.43862,0.12886 -0.43863,0.0831 -0.4804,0.0831 -0.4804,0.0831 0.22975,0.12885 0.25065,0.12887 0.22975,0.14965 0.22977,0.14965 0.20887,0.12886 0.20886,0.14965 0.20888,0.14965 0.18798,0.14965 0.18798,0.14965 0.18799,0.14965 0.1671,0.14965 0.18798,0.17147 0.1671,0.14965 0.16709,0.1933 0.18798,0.19329 0.20887,0.23591 0.20888,0.23591 0.20887,0.27851 0.22975,0.27851 0.22976,0.32113 0.25064,0.32112 0.25065,0.34294 0.27153,0.36374 0.27153,0.40737 2.8406,4.00582 h -5.59766 l -3.36277,-4.49852 -0.29242,-0.38555 -0.29242,-0.36373 -0.25064,-0.34294 -0.25065,-0.30035 -0.22975,-0.30033 -0.20888,-0.25669 -0.20887,-0.23591 -0.18798,-0.21408 -0.1671,-0.17147 -0.14621,-0.17148 -0.14621,-0.12886 -0.10443,-0.10704 -0.12532,-0.10704 -0.10444,-0.10704 -0.10443,-0.0831 -0.12532,-0.0831 -0.10444,-0.0831 -0.12532,-0.0624 -0.10444,-0.0623 -0.12532,-0.0623 -0.10444,-0.0623 -0.12532,-0.0416 -0.12532,-0.0623 -0.10444,-0.0208 -0.14621,-0.0416 -0.1462,-0.0416 -0.14621,-0.0416 -0.1671,-0.0208 -0.18798,-0.0208 -0.18799,-0.0416 h -0.18798 l -0.22976,-0.0208 -0.22976,-0.0208 h -0.22976 -0.25064 -0.25065 -0.93991 v 8.59018 h -4.67864 z m 4.67863,-11.8678 h 3.42544 l 0.52218,-0.0208 h 0.52217 0.45952 l 0.43862,-0.0208 h 0.41775 l 0.35507,-0.0208 0.3342,-0.0207 0.29242,-0.0208 0.27153,-0.0416 0.22976,-0.0208 0.18798,-0.0416 0.16709,-0.0208 0.12533,-0.0623 0.12532,-0.0416 0.12532,-0.0623 0.12532,-0.0416 0.12533,-0.0624 0.10443,-0.0831 0.10444,-0.0623 0.10444,-0.0831 0.10443,-0.0831 0.0831,-0.0831 0.10444,-0.0831 0.0831,-0.0831 0.0629,-0.10704 0.0831,-0.12887 0.0628,-0.10704 0.0629,-0.10704 0.0416,-0.12886 0.0629,-0.12887 0.0213,-0.12886 0.0416,-0.12887 0.0214,-0.14964 0.0213,-0.14966 v -0.12886 l 0.0213,-0.14965 -0.0213,-0.19329 v -0.17148 l -0.0213,-0.14964 -0.0416,-0.17148 -0.0416,-0.14965 -0.0416,-0.12886 -0.0628,-0.14965 -0.0629,-0.12887 -0.0831,-0.12886 -0.0831,-0.10705 -0.10443,-0.12886 -0.0831,-0.0831 -0.12532,-0.10704 -0.10444,-0.10704 -0.12532,-0.0831 -0.12532,-0.0831 -0.14621,-0.0831 -0.14621,-0.0623 -0.14621,-0.0624 -0.14621,-0.0623 -0.1671,-0.0416 -0.1671,-0.0416 -0.18798,-0.0416 -0.1671,-0.0208 -0.12532,-0.0207 -0.14621,-0.0208 h -0.16709 l -0.20888,-0.0208 h -0.25064 l -0.27153,-0.0208 h -0.29242 -0.33419 -0.35508 -0.39685 -0.43863 -0.43863 -3.61342 v 5.22702 z"
                id="path39"/>
        <path
                style="fill:#203f7e;fill-opacity:1;fill-rule:evenodd;stroke:none;stroke-width:2.78438"
                d="m 140.85163,147.80426 -8.25029,-20.56502 h 5.03372 l 5.86912,15.20955 5.61862,-15.20955 h 5.01279 l -8.2294,20.56502 z"
                id="path41"/>
        <path
                style="fill:#203f7e;fill-opacity:1;fill-rule:evenodd;stroke:none;stroke-width:2.78438"
                d="m 156.26606,147.80426 v -20.56502 h 4.6786 v 20.56502 z"
                id="path43"/>
        <path
                style="fill:#203f7e;fill-opacity:1;fill-rule:evenodd;stroke:none;stroke-width:2.78438"
                d="m 164.22393,141.14207 4.55327,-0.40738 0.064,0.32112 0.0852,0.32112 0.0853,0.30034 0.10657,0.27852 0.12574,0.27851 0.12575,0.25669 0.146,0.23591 0.16731,0.2359 0.16731,0.1933 0.1673,0.19329 0.20888,0.1933 0.20887,0.17147 0.20887,0.14966 0.23019,0.12885 0.23017,0.12887 0.25044,0.10704 0.25043,0.10704 0.29199,0.0831 0.27175,0.0624 0.29199,0.0623 0.31331,0.0416 0.3133,0.0208 0.33462,0.0208 0.35487,0.0207 0.35487,-0.0207 0.35486,-0.0208 0.35487,-0.0208 0.3133,-0.0416 0.31331,-0.0416 0.29199,-0.0623 0.27174,-0.0623 0.25044,-0.0831 0.25043,-0.10704 0.23018,-0.10704 0.20888,-0.10704 0.20886,-0.12887 0.16731,-0.14964 0.16732,-0.14965 0.1673,-0.17147 0.12575,-0.14965 0.12576,-0.17148 0.10656,-0.14965 0.0853,-0.17147 0.064,-0.17147 0.0639,-0.17147 0.0426,-0.17148 0.0214,-0.1933 0.0213,-0.17147 -0.0213,-0.12887 v -0.10704 l -0.0214,-0.10704 -0.0214,-0.12886 -0.0214,-0.0831 -0.0426,-0.10704 -0.0426,-0.10704 -0.0639,-0.10704 -0.0426,-0.0831 -0.064,-0.0831 -0.0853,-0.0831 -0.0639,-0.0831 -0.10657,-0.10704 -0.0853,-0.0831 -0.10656,-0.0831 -0.12575,-0.0624 -0.12575,-0.0831 -0.12574,-0.0831 -0.146,-0.0623 -0.146,-0.0624 -0.16731,-0.0831 -0.16731,-0.0623 -0.18755,-0.0624 -0.18756,-0.0416 -0.16731,-0.0623 -0.16731,-0.0416 -0.20887,-0.0624 -0.25044,-0.0623 -0.25042,-0.0624 -0.31331,-0.0623 -0.31331,-0.0831 -0.35487,-0.0831 -0.37617,-0.0831 -0.41775,-0.10704 -0.43905,-0.0831 -0.4593,-0.10704 -0.62661,-0.14964 -0.56374,-0.12887 -0.54349,-0.14965 -0.52218,-0.17147 -0.48062,-0.14965 -0.45929,-0.17147 -0.41775,-0.17148 -0.39642,-0.17147 -0.35487,-0.1933 -0.33462,-0.1933 -0.31331,-0.19225 -0.25042,-0.1933 -0.35488,-0.30033 -0.29199,-0.30035 -0.29198,-0.30033 -0.25044,-0.32112 -0.20887,-0.32113 -0.18756,-0.34294 -0.16731,-0.36374 -0.12575,-0.34294 -0.10657,-0.38556 -0.0852,-0.36372 -0.0426,-0.40739 v -0.38555 -0.27851 l 0.0214,-0.25669 0.0214,-0.25669 0.0639,-0.25669 0.064,-0.23591 0.0639,-0.25669 0.0853,-0.2359 0.10657,-0.25669 0.12574,-0.23591 0.12575,-0.2359 0.146,-0.23591 0.16731,-0.21408 0.16731,-0.23591 0.18755,-0.21408 0.18756,-0.21408 0.20888,-0.19329 0.23017,-0.19331 0.23019,-0.17147 0.23018,-0.17147 0.27175,-0.17147 0.27174,-0.14965 0.27175,-0.12886 0.29199,-0.14966 0.31331,-0.10704 0.3133,-0.12886 0.33463,-0.10704 0.35486,-0.0831 0.35487,-0.0831 0.35486,-0.0623 0.37619,-0.0624 0.37617,-0.0623 0.39643,-0.0416 0.41774,-0.0208 0.39643,-0.0416 h 0.43906 0.43905 0.68949 l 0.68948,0.0416 0.64793,0.0624 0.62661,0.0623 0.58505,0.10704 0.56374,0.14965 0.52217,0.14965 0.50087,0.17147 0.48061,0.21408 0.43906,0.21408 0.39642,0.2567 0.39643,0.27851 0.33462,0.27851 0.33462,0.32113 0.29199,0.32112 0.27175,0.34295 0.23018,0.34294 0.20887,0.38555 0.16731,0.38556 0.16731,0.40738 0.10657,0.40737 0.10657,0.44999 0.0639,0.44999 0.0426,0.47181 -4.6786,0.14965 -0.0639,-0.27851 -0.0853,-0.23591 -0.0639,-0.23591 -0.10657,-0.21408 -0.0853,-0.21408 -0.10657,-0.19225 -0.10657,-0.19331 -0.12574,-0.17147 -0.12576,-0.14965 -0.14599,-0.14964 -0.146,-0.12887 -0.14599,-0.10704 -0.18756,-0.12887 -0.16731,-0.10704 -0.20887,-0.0831 -0.20887,-0.0831 -0.20887,-0.0831 -0.25044,-0.0623 -0.25042,-0.0623 -0.27175,-0.0416 -0.27174,-0.0208 -0.29199,-0.0416 h -0.31331 -0.31331 -0.33462 -0.3133 l -0.31331,0.0416 -0.29199,0.0208 -0.27175,0.0624 -0.27174,0.0416 -0.27175,0.0623 -0.23018,0.0831 -0.23019,0.0831 -0.23018,0.10704 -0.20887,0.10704 -0.18756,0.12887 -0.12575,0.0624 -0.10656,0.10704 -0.0853,0.0831 -0.0853,0.10704 -0.0853,0.0831 -0.0639,0.10704 -0.064,0.10704 -0.0426,0.12887 -0.0213,0.10704 -0.0426,0.12886 v 0.12886 0.14965 0.10704 0.12887 l 0.0426,0.10704 0.0213,0.10704 0.0426,0.10704 0.064,0.10704 0.0426,0.10704 0.0853,0.10704 0.0853,0.0831 0.0853,0.10704 0.0853,0.0831 0.12575,0.10704 0.14599,0.10704 0.20888,0.10704 0.23018,0.10705 0.27174,0.10704 0.292,0.10704 0.35486,0.12886 0.35487,0.10704 0.41774,0.10704 0.43905,0.12886 0.48062,0.10704 0.50087,0.12887 0.56373,0.12886 0.54349,0.10705 0.54349,0.12886 0.50086,0.10704 0.48062,0.12887 0.4593,0.12886 0.43905,0.12887 0.41775,0.10704 0.37618,0.12886 0.35486,0.12886 0.33463,0.12887 0.3133,0.12886 0.29199,0.14966 0.25043,0.10704 0.27174,0.14964 0.23019,0.12887 0.25043,0.14965 0.23019,0.17147 0.20887,0.17148 0.20887,0.17147 0.18755,0.17147 0.18756,0.1933 0.18756,0.21408 0.16731,0.19226 0.16731,0.2359 0.14599,0.21408 0.12576,0.23591 0.12574,0.23591 0.12575,0.25668 0.0853,0.2567 0.0853,0.27851 0.0852,0.27851 0.0639,0.27851 0.0426,0.30034 0.0213,0.30034 0.0214,0.32112 0.0213,0.32113 -0.0213,0.27851 -0.0214,0.30034 -0.0426,0.27851 -0.064,0.30034 -0.064,0.27851 -0.0853,0.27851 -0.10657,0.27852 -0.12575,0.25669 -0.12574,0.27852 -0.16732,0.25668 -0.16731,0.25669 -0.1673,0.27851 -0.18756,0.23591 -0.20887,0.23591 -0.20887,0.2359 -0.23019,0.21408 -0.25043,0.1933 -0.25043,0.21408 -0.27175,0.17148 -0.27174,0.17147 -0.29199,0.17148 -0.31331,0.14964 -0.3133,0.12887 -0.33462,0.14965 -0.35487,0.10704 -0.35487,0.10704 -0.35486,0.10704 -0.37618,0.0831 -0.39644,0.0831 -0.41773,0.0624 -0.41774,0.0416 -0.43906,0.0623 -0.4593,0.0208 -0.4593,0.0416 h -0.48062 l -0.48062,0.0208 -0.73104,-0.0208 -0.68949,-0.0416 -0.66817,-0.0623 -0.62661,-0.0831 -0.6053,-0.10704 -0.58505,-0.12886 -0.54349,-0.17148 -0.52217,-0.17147 -0.48062,-0.21408 -0.45931,-0.23591 -0.43904,-0.25669 -0.39644,-0.27851 -0.39642,-0.32112 -0.33462,-0.34295 -0.33463,-0.36374 -0.29198,-0.38555 -0.27175,-0.38555 -0.25043,-0.42816 -0.20887,-0.44999 -0.18756,-0.47181 -0.16731,-0.4926 -0.146,-0.51442 -0.10656,-0.5352 -0.0853,-0.55703 v 0 z"
                id="path45"/>
        <path
                style="fill:#203f7e;fill-opacity:1;fill-rule:evenodd;stroke:none;stroke-width:2.78438"
                d="M 3.3957231,59.974511 H 82.84903 L 90.598023,49.734762 H 11.144725 Z"
                id="path47"/>
        <path
                style="fill:#203f7e;fill-opacity:1;fill-rule:evenodd;stroke:none;stroke-width:2.78438"
                d="m 131.57788,59.974511 h 44.11283 l 7.74899,-10.239749 h -51.82004 l -0.0416,10.239749 z"
                id="path49"/>
        <path
                style="fill:#203f7e;fill-opacity:1;fill-rule:evenodd;stroke:none;stroke-width:2.78438"
                d="M 3.3957231,44.31507 H 175.7116 l 7.74899,-10.239645 H 11.144725 Z"
                id="path51"/>
        <path
                style="fill:#203f7e;fill-opacity:1;fill-rule:evenodd;stroke:none;stroke-width:2.78438"
                d="M 3.3957231,28.655629 H 175.7116 l 7.74899,-10.239645 H 11.144725 Z"
                id="path53"/>
    </g>
</svg>
