<?xml version="1.0" standalone="no"?>
<!DOCTYPE svg PUBLIC "-//W3C//DTD SVG 20010904//EN"
 "http://www.w3.org/TR/2001/REC-SVG-20010904/DTD/svg10.dtd">
<svg version="1.0" xmlns="http://www.w3.org/2000/svg"
 width="698.000000pt" height="698.000000pt" viewBox="0 0 698.000000 698.000000"
 preserveAspectRatio="xMidYMid meet">
<metadata>
Created by potrace 1.14, written by Peter Selinger 2001-2017
</metadata>
<g transform="translate(0.000000,698.000000) scale(0.100000,-0.100000)"
fill="#000000" stroke="none">
<path d="M0 3485 l0 -2585 3490 0 3490 0 0 2585 0 2585 -3490 0 -3490 0 0
-2585z m6690 2288 c0 -3 -19 -24 -42 -47 -24 -22 -36 -36 -28 -31 9 6 4 -1
-10 -15 -14 -14 -21 -23 -15 -20 6 3 -1 -6 -15 -20 -14 -14 -19 -21 -10 -16 8
5 -3 -7 -24 -26 -22 -19 -36 -39 -33 -45 4 -6 -1 -17 -11 -24 -15 -13 -16 -12
-3 4 7 9 11 17 8 17 -2 0 -17 -17 -33 -37 -24 -33 -25 -35 -4 -18 16 13 11 3
-14 -30 l-37 -50 -3055 5 c-2029 3 -3059 2 -3066 -5 -28 -24 48 73 81 104 20
19 29 30 21 25 -9 -5 -4 2 10 16 14 14 21 23 15 20 -6 -3 1 6 15 20 14 14 19
21 10 16 -8 -5 3 7 24 26 22 19 36 39 33 45 -4 6 1 17 11 24 16 13 16 13 2 -6
-14 -19 -14 -19 3 -6 10 8 16 20 13 27 -3 7 3 18 12 26 16 12 16 11 2 -7 -14
-19 -14 -19 3 -6 10 8 16 20 13 28 -5 11 502 13 3059 13 1686 0 3065 -3 3065
-7z m-6190 -97 c0 -2 -8 -10 -17 -17 -16 -13 -17 -12 -4 4 13 16 21 21 21 13z
m6050 -90 c0 -2 -8 -10 -17 -17 -16 -13 -17 -12 -4 4 13 16 21 21 21 13z m133
-371 c6 6 5 2 -2 -7 -7 -10 -18 -15 -24 -11 -6 4 -8 0 -4 -10 3 -9 -1 -21 -11
-29 -16 -12 -16 -11 -2 7 14 19 14 19 -3 6 -10 -8 -16 -20 -13 -27 3 -7 -3
-18 -12 -26 -15 -12 -16 -11 -3 5 7 9 11 17 8 17 -2 0 -17 -17 -33 -37 -25
-34 -25 -36 -4 -18 36 30 -33 -61 -79 -104 -20 -19 -29 -30 -21 -25 9 5 4 -2
-10 -16 -14 -14 -21 -23 -15 -20 6 3 -1 -6 -15 -20 -14 -14 -19 -21 -10 -15
10 6 8 2 -4 -13 l-19 -22 -3060 0 -3060 0 27 21 c15 12 25 27 22 34 -3 8 3 19
12 27 16 12 16 11 2 -7 -14 -19 -14 -19 3 -6 10 8 16 20 13 27 -3 7 3 18 12
26 15 12 16 11 3 -4 -7 -10 -11 -18 -8 -18 2 0 17 17 33 38 25 33 25 35 4 17
-36 -30 33 61 79 104 20 19 29 30 21 25 -9 -5 -4 2 10 16 14 14 21 23 15 20
-6 -3 1 6 15 19 14 13 19 20 11 16 -8 -5 -12 -4 -9 1 4 5 1245 7 3063 4 2030
-3 3060 -2 3068 5z m-6353 -319 c0 -2 -8 -10 -17 -17 -16 -13 -17 -12 -4 4 13
16 21 21 21 13z m3060 -234 c0 -13 -47 -74 -78 -102 -15 -14 -23 -23 -17 -20
6 3 -1 -6 -15 -20 -14 -14 -21 -23 -15 -20 6 3 -1 -6 -15 -20 -14 -14 -19 -21
-10 -16 8 5 -3 -7 -24 -26 -22 -19 -36 -39 -33 -45 4 -6 -1 -17 -11 -24 -15
-13 -16 -12 -3 4 7 9 11 17 8 17 -2 0 -17 -17 -33 -37 -25 -34 -25 -36 -4 -18
l24 20 -19 -25 -18 -25 -1409 5 c-932 3 -1413 2 -1421 -5 -26 -23 19 33 52 64
20 19 29 30 21 25 -9 -5 -4 2 10 16 14 14 21 23 15 20 -6 -3 1 6 15 20 14 14
19 21 10 16 -8 -5 3 7 24 26 22 19 36 39 33 45 -4 6 1 17 11 24 16 13 16 13 2
-6 -14 -19 -14 -19 3 -6 10 8 16 20 13 27 -3 7 3 18 12 26 15 11 16 11 7 -2
-5 -9 2 -2 16 14 15 17 25 36 22 43 -4 11 255 13 1411 13 779 0 1416 -4 1416
-8z m1242 -174 l-3 -178 -125 0 c-89 0 -123 -3 -118 -11 4 -8 -3 -9 -26 -4
-24 5 -31 4 -25 -5 5 -9 2 -10 -12 -6 -11 3 -27 -1 -39 -10 -10 -8 -13 -13 -6
-9 22 11 12 -1 -20 -25 l-33 -23 20 24 c16 19 17 21 2 10 -21 -17 -46 -58 -28
-47 7 5 9 1 5 -8 -3 -9 -10 -13 -15 -10 -5 3 -6 -2 -3 -10 3 -9 1 -16 -5 -16
-7 0 -9 -10 -5 -26 5 -19 4 -25 -5 -20 -8 5 -11 -25 -11 -113 l0 -121 220 0
220 0 0 -215 0 -215 -220 0 -220 0 2 -630 3 -630 -372 0 -373 0 0 630 0 630
-110 0 -110 0 0 218 0 217 112 -3 113 -3 -3 180 c-2 133 0 181 9 181 8 0 10
12 5 40 -4 26 -2 40 5 40 6 0 8 8 4 20 -4 12 -2 20 5 20 7 0 9 8 5 21 -5 16
-4 19 6 14 9 -6 11 -3 6 8 -3 10 -2 17 3 17 5 0 7 6 4 13 -2 7 3 21 12 32 8
11 13 14 9 8 -12 -24 3 -13 21 15 17 26 17 27 -1 12 -17 -13 -17 -11 2 15 11
17 31 39 44 50 23 19 23 19 -1 -11 -14 -16 -7 -12 14 10 22 23 36 34 32 26 -4
-8 1 -5 11 6 25 30 58 45 79 37 12 -5 15 -3 9 6 -5 10 -2 11 14 6 13 -4 21 -2
21 5 0 8 10 9 31 5 17 -4 29 -3 26 1 -3 5 180 9 406 9 l412 0 -3 -177z m2038
159 c-14 -12 -21 -20 -15 -17 6 3 -1 -6 -15 -20 -14 -14 -19 -21 -10 -16 8 5
-3 -7 -24 -26 -22 -19 -36 -39 -33 -45 4 -6 -1 -17 -11 -24 -15 -13 -16 -12
-3 4 7 9 11 17 8 17 -2 0 -17 -17 -33 -37 -25 -34 -25 -36 -4 -18 13 11 -4
-17 -39 -62 -34 -46 -66 -83 -72 -83 -6 0 -8 -3 -6 -7 3 -5 -348 -7 -779 -5
l-783 2 -3 180 -3 180 925 0 925 0 -25 -23z m-6110 -1 c0 -2 -8 -10 -17 -17
-16 -13 -17 -12 -4 4 13 16 21 21 21 13z m6050 -90 c0 -2 -8 -10 -17 -17 -16
-13 -17 -12 -4 4 13 16 21 21 21 13z m-6140 -30 c0 -2 -8 -10 -17 -17 -16 -13
-17 -12 -4 4 13 16 21 21 21 13z m2750 -100 c0 -2 -8 -10 -17 -17 -16 -13 -17
-12 -4 4 13 16 21 21 21 13z m2340 -520 c0 -4 11 -5 25 -2 15 4 25 2 25 -4 0
-7 8 -9 21 -5 16 5 19 4 14 -5 -5 -9 -1 -10 15 -5 17 5 21 4 15 -6 -6 -9 -3
-11 8 -6 10 3 17 2 17 -4 0 -6 4 -7 10 -4 13 8 50 -12 73 -39 10 -11 16 -15
12 -8 -6 11 -3 12 13 3 12 -6 24 -17 28 -24 5 -7 0 -6 -12 3 -18 14 -18 14 -5
-3 8 -10 20 -16 26 -13 7 2 43 -28 81 -67 38 -39 58 -63 44 -52 -24 19 -24 18
1 -7 15 -14 25 -28 23 -31 -2 -2 4 -10 13 -18 16 -12 17 -12 8 1 -6 9 -8 66
-5 145 l5 130 338 0 337 0 0 -827 0 -828 -339 0 -340 0 -3 136 c-2 76 1 139 6
145 6 6 6 9 0 9 -5 0 -18 -13 -29 -28 -19 -27 -19 -27 0 -13 11 8 -1 -5 -27
-28 -26 -23 -66 -63 -89 -89 -23 -26 -36 -38 -28 -28 10 14 3 12 -28 -9 -24
-15 -43 -30 -43 -32 0 -2 5 -1 10 2 6 3 10 4 10 1 0 -3 -14 -13 -31 -22 -17
-8 -28 -11 -25 -5 4 7 1 8 -8 5 -9 -3 -13 -11 -9 -17 4 -6 0 -8 -10 -4 -10 3
-17 2 -17 -3 0 -5 -7 -6 -17 -3 -11 5 -14 3 -8 -6 6 -10 2 -11 -15 -6 -17 5
-20 4 -15 -5 6 -10 1 -11 -19 -6 -19 5 -26 3 -21 -4 5 -8 -4 -9 -30 -4 -27 5
-36 4 -31 -5 5 -8 -9 -11 -48 -11 -35 0 -56 4 -56 11 0 8 -13 9 -41 5 -27 -4
-38 -3 -34 4 4 7 -2 9 -21 4 -20 -5 -25 -4 -19 6 5 9 2 10 -14 5 -13 -4 -21
-2 -21 5 0 6 -4 9 -9 6 -14 -9 -42 5 -34 17 4 6 0 8 -10 4 -10 -4 -17 -1 -17
5 0 6 -3 8 -7 5 -3 -4 -12 1 -20 11 -8 9 -11 11 -8 4 6 -11 3 -12 -14 -3 -11
7 -21 14 -21 17 0 3 5 2 10 -1 24 -15 7 4 -17 21 -27 17 -28 17 -13 -2 8 -10
-21 17 -65 62 -62 62 -66 65 -20 15 l60 -66 -58 55 c-63 60 -119 128 -82 101
11 -8 3 1 -17 21 -36 34 -51 57 -27 42 6 -3 4 7 -5 24 -8 16 -23 32 -32 36 -9
3 -14 12 -10 21 3 8 1 15 -4 15 -5 0 -6 7 -3 17 5 12 3 14 -7 8 -10 -6 -12 -4
-7 8 3 10 2 17 -3 17 -5 0 -6 7 -3 17 5 11 3 14 -6 8 -10 -6 -11 -2 -6 15 5
16 4 20 -5 15 -9 -5 -10 -2 -5 14 4 13 2 21 -5 21 -7 0 -9 8 -5 21 5 16 4 19
-5 14 -9 -6 -10 1 -5 25 5 25 4 31 -5 25 -10 -6 -11 1 -6 30 4 21 3 35 -2 31
-5 -3 -9 49 -9 124 1 78 5 127 10 123 6 -4 7 9 3 32 -6 28 -4 35 5 29 9 -5 10
1 6 25 -5 23 -3 30 5 25 8 -5 9 1 4 20 -5 20 -3 26 5 21 8 -5 9 -1 4 15 -5 17
-4 21 6 15 9 -6 11 -2 7 13 -4 12 -2 22 3 22 4 0 5 7 2 17 -4 10 -2 14 4 10
14 -9 24 18 16 40 -4 10 -2 14 4 10 5 -4 15 5 22 19 8 18 8 23 0 18 -8 -4 -8
0 0 15 7 11 16 21 21 21 5 0 14 10 21 21 9 17 8 20 -3 14 -7 -4 -2 3 12 16 14
13 19 20 10 14 -26 -17 7 23 65 80 28 28 38 39 22 25 -17 -14 -27 -20 -24 -13
4 6 31 31 60 54 31 26 44 33 32 18 -11 -14 -5 -9 14 10 19 20 31 30 26 23 -6
-11 -3 -12 14 -3 11 7 21 14 21 17 0 3 -4 2 -10 -1 -5 -3 -10 -4 -10 -1 0 3
10 10 21 17 17 9 20 8 14 -3 -3 -7 -1 -6 7 3 7 9 19 14 27 11 8 -3 11 0 7 6
-8 13 19 23 41 15 11 -4 14 -3 9 5 -5 8 -2 10 8 6 9 -3 16 -1 16 6 0 7 8 9 20
5 12 -4 20 -2 20 5 0 7 8 9 20 5 11 -3 20 -2 20 3 0 5 40 9 90 8 49 -1 90 -5
90 -10z m-4502 -984 l-3 -962 595 2 595 3 -3 -382 -2 -383 -975 -2 -975 -3 0
1345 0 1345 385 0 385 0 -2 -963z m1282 956 c0 -7 16 -8 45 -5 30 5 45 3 45
-4 0 -7 12 -9 35 -5 22 5 35 3 35 -4 0 -6 10 -8 26 -4 20 5 25 4 19 -6 -5 -9
-2 -10 14 -5 13 4 21 2 21 -5 0 -7 8 -9 21 -5 16 5 19 4 14 -5 -5 -9 -1 -10
15 -5 17 5 21 4 15 -6 -6 -9 -3 -11 8 -6 10 3 17 2 17 -4 0 -6 4 -8 9 -5 12 8
42 -4 36 -14 -2 -4 7 -12 21 -19 18 -8 23 -8 18 0 -4 8 0 8 15 0 11 -7 21 -14
21 -17 0 -3 -4 -2 -10 1 -5 3 -10 4 -10 1 0 -3 10 -10 21 -17 17 -9 20 -8 14
3 -4 7 5 -2 21 -20 16 -18 37 -34 46 -36 25 -3 68 -46 62 -61 -3 -7 10 -25 28
-40 34 -28 62 -65 38 -50 -9 6 -9 3 -1 -13 6 -11 18 -22 26 -26 11 -4 14 -12
10 -27 -5 -16 -4 -19 6 -14 9 6 11 3 6 -8 -3 -10 -2 -17 3 -17 5 0 6 -7 3 -17
-5 -11 -3 -14 6 -8 10 6 11 2 6 -15 -5 -16 -4 -20 4 -15 8 5 10 -1 5 -21 -5
-21 -4 -25 6 -19 10 6 11 2 6 -19 -3 -14 -2 -26 3 -26 6 0 7 -16 4 -37 -4 -20
-2 -34 3 -31 5 4 9 -81 10 -203 0 -114 -3 -206 -8 -203 -4 3 -8 0 -8 -5 0 -8
-94 -11 -292 -12 -161 -1 -398 -4 -526 -8 -138 -3 -232 -2 -232 3 0 5 -3 7 -6
3 -7 -7 132 -147 172 -174 17 -11 25 -13 20 -5 -7 11 -4 12 13 3 22 -12 30
-27 9 -16 -7 4 -4 -1 7 -9 11 -9 25 -14 32 -12 18 7 44 -4 37 -16 -4 -6 2 -7
16 -3 16 5 20 4 15 -5 -5 -9 -1 -10 15 -5 16 5 20 4 15 -5 -5 -9 -1 -10 15 -5
16 5 20 4 15 -5 -6 -9 1 -10 24 -5 19 4 31 3 31 -4 0 -6 18 -8 50 -4 34 4 50
2 50 -6 0 -14 37 -14 46 0 4 8 25 9 61 5 40 -5 53 -3 47 5 -5 9 2 10 24 6 20
-4 32 -2 32 4 0 6 9 8 21 4 16 -5 19 -4 14 5 -6 10 -1 11 19 6 20 -5 26 -4 20
5 -5 9 -2 10 9 6 10 -3 17 -2 17 3 0 5 7 6 17 3 11 -5 14 -3 8 6 -6 10 -2 11
15 6 17 -5 21 -4 15 6 -6 10 -5 11 3 4 16 -14 21 -284 6 -278 -7 2 -15 -1 -20
-8 -4 -8 -3 -10 4 -5 7 4 12 5 12 2 0 -10 -81 -47 -90 -41 -6 3 -10 2 -10 -4
0 -6 -7 -7 -17 -4 -12 5 -14 3 -8 -7 6 -10 4 -12 -8 -7 -10 3 -17 2 -17 -4 0
-6 -9 -8 -21 -4 -16 5 -19 4 -14 -5 5 -9 1 -10 -15 -5 -16 5 -20 4 -15 -4 5
-8 -1 -10 -21 -5 -19 5 -25 4 -20 -5 6 -9 0 -10 -20 -5 -20 5 -25 4 -19 -6 6
-9 0 -10 -24 -5 -20 4 -31 3 -31 -5 0 -7 -12 -9 -35 -4 -23 4 -35 2 -35 -5 0
-8 -15 -10 -50 -5 -29 4 -50 3 -50 -3 0 -5 -69 -9 -165 -9 -91 0 -165 5 -165
10 0 4 -18 6 -40 2 -26 -4 -40 -2 -40 5 0 7 -11 8 -30 4 -19 -4 -30 -3 -30 4
0 7 -10 9 -26 5 -20 -5 -25 -4 -19 6 5 9 2 10 -15 5 -16 -5 -20 -4 -15 5 5 9
1 10 -15 5 -16 -5 -20 -4 -15 5 5 9 2 10 -14 5 -13 -4 -21 -2 -21 5 0 6 -4 9
-9 5 -12 -7 -82 26 -76 36 3 4 -2 10 -11 13 -10 4 -13 2 -8 -6 17 -27 -67 32
-121 87 -33 33 -53 51 -45 40 14 -19 14 -19 -2 -6 -10 7 -15 18 -11 24 3 6
-11 26 -33 45 -21 19 -30 29 -20 21 19 -14 19 -13 2 14 -17 24 -36 41 -21 17
3 -5 4 -10 1 -10 -3 0 -13 14 -22 31 -8 17 -11 28 -5 24 8 -4 8 2 0 19 -7 14
-17 23 -22 19 -6 -4 -8 0 -4 10 3 10 2 17 -3 17 -5 0 -6 7 -3 17 5 11 3 14 -6
8 -10 -6 -11 -2 -6 15 5 16 4 20 -5 15 -9 -5 -10 -1 -5 15 5 17 4 20 -5 15
-10 -6 -11 -1 -6 19 5 19 3 26 -4 21 -7 -5 -9 2 -4 21 5 21 4 25 -6 19 -10 -6
-11 0 -6 29 4 21 3 36 -3 36 -5 0 -7 25 -4 62 5 45 3 59 -5 54 -9 -5 -12 9
-12 49 0 40 3 54 12 49 8 -5 10 9 5 54 -3 39 -1 62 5 62 6 0 8 14 3 36 -5 27
-3 34 6 28 9 -5 10 0 5 20 -5 20 -4 26 5 20 9 -5 10 1 5 20 -5 20 -3 26 5 21
8 -5 9 -1 4 15 -5 16 -4 20 5 15 9 -5 10 -1 5 15 -5 17 -4 21 6 15 9 -6 11 -3
6 8 -3 10 -2 17 3 17 5 0 6 7 3 17 -4 10 -2 14 4 10 5 -4 15 5 22 19 8 18 8
23 0 18 -8 -5 -8 -1 0 14 6 11 18 22 27 26 9 3 14 13 11 20 -4 9 8 25 29 41
20 15 33 33 30 40 -3 8 3 19 12 27 16 12 16 11 3 -7 -8 -11 5 1 30 26 24 25
35 33 24 19 -11 -14 -2 -8 19 14 22 23 36 34 32 26 -4 -8 2 -4 14 10 12 14 19
18 15 10 -4 -8 2 -5 12 6 23 27 60 47 73 39 6 -3 10 -1 10 5 0 6 5 8 10 5 6
-3 10 -2 10 4 0 6 7 7 17 4 11 -5 14 -3 8 6 -6 10 -2 11 15 6 16 -5 20 -4 15
5 -5 9 -2 10 14 5 13 -4 21 -2 21 5 0 7 8 9 21 5 15 -5 19 -4 14 4 -5 8 1 10
19 5 17 -4 26 -2 26 6 0 8 10 9 30 5 19 -4 30 -3 30 4 0 7 16 8 45 4 28 -3 45
-2 45 5 0 6 43 10 115 10 74 0 115 -3 115 -10z m511 -165 c13 -16 12 -17 -3
-4 -10 7 -18 15 -18 17 0 8 8 3 21 -13z m-1331 -97 c0 -2 -8 -10 -17 -17 -16
-13 -17 -12 -4 4 13 16 21 21 21 13z m1445 -16 c10 -11 16 -20 13 -20 -3 0
-13 9 -23 20 -10 11 -16 20 -13 20 3 0 13 -9 23 -20z m-794 -937 c13 -16 12
-17 -3 -4 -10 7 -18 15 -18 17 0 8 8 3 21 -13z m-660 -220 c13 -16 12 -17 -3
-4 -10 7 -18 15 -18 17 0 8 8 3 21 -13z m4459 4 c0 -1 -24 -25 -52 -52 l-53
-50 50 53 c46 48 55 57 55 49z m-2970 -530 c0 -5 9 -5 20 -2 12 4 20 2 20 -5
0 -7 7 -9 16 -6 8 3 27 -1 42 -8 30 -16 86 -73 88 -90 0 -6 2 -17 2 -24 1 -7
7 -10 12 -7 7 4 8 -3 4 -21 -5 -19 -4 -25 5 -20 7 4 11 0 11 -11 0 -16 -8 -18
-66 -15 -39 2 -71 -1 -77 -7 -19 -19 -39 -13 -32 10 5 13 3 19 -3 15 -11 -7
-25 21 -17 34 9 14 -40 41 -60 34 -13 -5 -16 -4 -11 4 5 9 -10 12 -53 12 -37
0 -61 -4 -61 -11 0 -6 -8 -8 -18 -5 -30 10 -55 -17 -55 -57 0 -44 19 -70 46
-61 14 4 17 3 12 -6 -5 -9 -1 -10 15 -5 16 5 20 4 15 -5 -5 -9 -2 -10 14 -5
13 4 21 2 21 -5 0 -6 10 -8 26 -4 21 5 25 4 19 -6 -6 -10 -2 -11 19 -6 16 4
26 2 26 -4 0 -7 8 -9 20 -5 12 4 20 2 20 -5 0 -7 8 -9 21 -5 16 5 19 4 14 -5
-5 -9 -1 -10 15 -5 13 4 20 3 17 -2 -4 -5 10 -17 29 -27 24 -11 33 -12 29 -4
-4 7 2 2 13 -11 10 -13 30 -33 43 -43 13 -11 18 -17 12 -13 -9 4 -11 1 -7 -9
3 -9 10 -13 15 -10 5 3 6 -2 3 -10 -3 -9 -2 -16 2 -16 5 0 9 -27 9 -59 0 -33
-4 -57 -9 -54 -4 3 -5 -4 -2 -15 5 -16 -4 -32 -41 -69 -26 -26 -44 -41 -39
-33 4 8 -1 5 -11 -8 -13 -16 -24 -21 -38 -16 -13 5 -16 4 -10 -5 6 -10 2 -11
-15 -6 -16 5 -20 4 -15 -4 5 -8 -1 -10 -19 -5 -14 3 -26 2 -26 -3 0 -4 -45 -8
-99 -8 -55 0 -97 4 -94 8 3 5 -9 6 -27 2 -24 -5 -31 -4 -25 5 5 9 1 10 -15 5
-14 -4 -20 -3 -17 2 4 6 -5 15 -19 22 -15 6 -23 7 -19 1 11 -18 -4 -10 -40 21
-35 31 -69 79 -46 65 8 -5 8 0 0 18 -7 14 -16 23 -22 19 -5 -3 -6 3 -2 17 5
15 4 20 -4 16 -6 -4 -9 4 -8 23 2 27 4 29 35 24 21 -4 32 -2 32 6 0 8 17 11
49 9 34 -2 47 -7 44 -15 -3 -7 0 -13 6 -13 6 0 8 -7 4 -17 -5 -12 -3 -14 7 -8
10 6 12 4 7 -7 -6 -16 25 -52 46 -54 34 -3 38 -5 32 -14 -4 -6 6 -7 26 -3 21
4 34 2 40 -8 8 -12 10 -12 18 0 6 10 19 12 46 7 23 -5 35 -4 31 2 -7 11 21 25
34 17 4 -3 14 3 21 13 12 15 12 16 -1 7 -13 -8 -12 -7 0 5 9 9 14 22 12 29 -3
8 0 11 7 7 6 -4 11 -1 11 8 0 9 -5 16 -11 16 -6 0 -9 7 -6 15 6 14 -7 28 -28
31 -5 0 -16 2 -23 2 -7 1 -10 7 -6 13 4 8 0 9 -15 4 -13 -4 -21 -2 -21 5 0 6
-10 8 -26 4 -20 -5 -25 -4 -20 5 6 9 0 10 -20 5 -21 -5 -25 -4 -19 6 6 10 2
11 -19 6 -16 -4 -26 -2 -26 4 0 7 -8 9 -20 5 -11 -4 -20 -2 -20 4 0 6 -7 8
-15 5 -8 -4 -15 -1 -15 5 0 6 -7 8 -17 4 -12 -5 -14 -3 -8 7 6 10 4 12 -8 7
-9 -3 -18 1 -21 10 -4 8 -13 13 -20 10 -19 -7 -89 70 -82 89 3 8 2 14 -2 14
-4 0 -7 24 -7 54 0 30 4 52 9 48 5 -3 7 2 3 11 -3 9 1 18 10 21 8 4 13 12 10
20 -5 13 20 43 52 61 10 6 12 4 7 -6 -5 -8 -2 -8 6 2 7 9 19 14 27 11 8 -3 11
0 7 7 -5 7 -1 9 8 5 9 -3 16 -1 16 5 0 7 10 9 26 5 16 -4 25 -3 21 2 -3 5 37
9 94 9 54 0 99 -4 99 -8z m3423 -1 c-4 -5 5 -6 21 -2 16 4 26 2 26 -5 0 -6 7
-9 15 -5 8 3 15 1 15 -5 0 -6 5 -7 10 -4 6 4 29 -13 53 -37 23 -24 31 -30 17
-13 -18 22 -14 20 13 -8 23 -22 36 -44 33 -53 -3 -7 -1 -14 5 -14 5 0 7 -11 3
-26 -5 -19 -4 -25 5 -20 6 4 11 1 11 -6 0 -10 -17 -12 -66 -10 -39 2 -71 -1
-77 -7 -17 -17 -40 -14 -33 5 6 14 -18 74 -30 74 -3 0 -2 -6 1 -12 4 -7 -2 -3
-12 10 -13 16 -24 21 -38 16 -13 -5 -16 -4 -11 4 5 9 -10 12 -53 12 -37 0 -61
-4 -61 -11 0 -6 -9 -8 -21 -4 -16 5 -19 4 -14 -6 6 -9 4 -11 -7 -6 -20 7 -38
-11 -31 -31 4 -10 2 -13 -5 -8 -7 4 -12 1 -12 -8 0 -9 5 -16 11 -16 5 0 8 -4
5 -9 -8 -12 31 -44 43 -36 6 3 11 2 11 -4 0 -6 7 -8 15 -5 8 4 15 1 15 -6 0
-7 8 -9 20 -5 12 4 20 2 20 -5 0 -7 8 -9 20 -5 12 4 20 2 20 -5 0 -8 9 -10 26
-6 18 5 24 3 18 -5 -5 -9 1 -10 20 -5 19 5 26 3 21 -4 -5 -7 2 -9 21 -4 21 5
25 4 19 -6 -6 -10 -4 -12 8 -7 10 3 17 2 17 -3 0 -5 7 -6 17 -3 10 4 14 2 10
-4 -4 -6 0 -14 9 -17 8 -3 12 -2 9 4 -15 24 10 6 56 -40 39 -40 49 -55 44 -71
-4 -13 -3 -19 3 -16 5 4 9 -15 8 -48 0 -30 -4 -55 -9 -55 -5 0 -6 -7 -3 -16 4
-10 2 -13 -6 -8 -8 5 -9 2 -5 -10 5 -11 3 -15 -4 -10 -7 4 -10 1 -7 -7 7 -18
-50 -79 -68 -72 -8 3 -16 -2 -20 -10 -3 -9 -12 -13 -21 -10 -12 5 -14 3 -8 -6
6 -10 2 -11 -15 -6 -16 5 -20 4 -15 -4 5 -8 -1 -10 -19 -5 -14 3 -26 2 -26 -3
0 -4 -45 -8 -100 -8 -55 0 -100 4 -100 8 0 5 -12 6 -26 3 -18 -5 -24 -3 -19 5
5 8 1 9 -15 4 -17 -5 -21 -4 -15 6 6 9 4 11 -8 6 -9 -3 -18 1 -21 10 -4 8 -12
13 -20 10 -8 -3 -28 11 -47 31 l-34 37 36 -30 c23 -20 20 -16 -8 12 -31 30
-41 46 -36 59 4 12 3 15 -5 10 -8 -5 -10 -2 -6 8 3 9 1 16 -6 16 -7 0 -9 8 -5
21 5 14 2 25 -6 30 -9 6 2 7 29 3 29 -5 42 -3 42 5 0 8 17 11 50 9 43 -3 49
-5 44 -22 -4 -13 -3 -16 6 -11 8 5 11 3 8 -5 -5 -17 64 -87 81 -81 9 3 12 0 7
-7 -5 -8 2 -10 25 -5 21 4 34 2 40 -8 8 -12 10 -12 18 0 6 9 19 12 42 7 43 -8
102 24 92 50 -3 10 -2 15 3 12 11 -7 12 62 0 80 -4 7 -11 10 -16 7 -12 -8 -41
6 -34 16 3 6 -5 7 -22 3 -21 -5 -25 -4 -19 6 6 10 2 11 -19 6 -20 -5 -26 -4
-20 5 5 9 0 10 -20 5 -15 -4 -26 -2 -26 4 0 6 -11 8 -26 4 -20 -5 -25 -4 -20
5 6 9 0 10 -20 5 -20 -5 -25 -4 -19 6 5 9 2 10 -15 5 -17 -5 -21 -4 -15 6 6 9
3 11 -8 6 -10 -3 -17 -2 -17 4 0 6 -5 7 -11 3 -7 -4 -20 4 -31 17 -11 13 -17
17 -13 9 4 -8 -1 -6 -10 5 -8 11 -26 28 -38 38 -12 10 -16 16 -9 12 10 -5 10
-1 1 19 -7 14 -15 24 -18 21 -11 -6 -5 129 6 150 6 11 24 31 40 45 l28 25 -25
-31 c-14 -16 -8 -13 12 9 21 21 42 36 48 32 5 -3 10 -2 10 4 0 6 7 7 17 4 11
-5 14 -3 8 6 -6 10 0 12 25 6 18 -4 30 -3 27 2 -3 4 39 8 93 8 56 0 96 -4 93
-9z m-2433 -61 l0 -60 -222 3 -223 3 3 -81 4 -80 204 0 204 0 0 -70 0 -70
-205 0 -205 0 0 -90 0 -90 223 0 222 0 0 -70 0 -70 -312 0 -313 0 0 368 0 367
310 0 310 0 0 -60z m623 51 c-3 -4 9 -5 27 -1 24 5 31 4 25 -5 -5 -9 -2 -10
12 -6 11 3 27 -1 39 -10 10 -8 13 -13 7 -9 -24 12 -13 -3 15 -21 23 -15 25
-15 13 -1 -7 9 -11 17 -7 17 15 0 56 -78 50 -95 -4 -11 -3 -16 2 -12 5 3 9
-19 9 -53 0 -34 -4 -56 -9 -53 -5 4 -7 -1 -3 -10 4 -10 1 -17 -5 -17 -6 0 -9
-3 -5 -6 3 -3 -7 -18 -22 -32 -25 -25 -25 -25 -1 -7 l25 20 -24 -27 c-13 -15
-29 -24 -37 -21 -8 3 -16 -2 -20 -10 -3 -9 -12 -13 -21 -10 -12 5 -14 3 -8 -6
6 -10 2 -11 -15 -6 -16 5 -20 4 -15 -5 6 -9 -1 -10 -24 -5 -22 5 -31 3 -31 -6
0 -7 3 -9 7 -6 3 4 12 -1 20 -11 10 -11 12 -12 8 -2 -4 8 5 1 19 -17 15 -18
48 -51 74 -74 26 -23 40 -38 32 -33 -9 5 -4 -2 10 -16 15 -14 33 -34 41 -45
13 -19 13 -19 -6 -5 -19 14 -19 14 -6 -5 8 -11 26 -31 41 -45 14 -14 19 -20
11 -15 -10 7 -9 2 3 -17 17 -26 35 -41 20 -16 -4 7 -3 8 4 4 30 -19 4 -26 -92
-26 l-105 0 -22 33 c-13 18 -17 28 -8 22 8 -5 3 1 -11 15 -14 14 -21 23 -15
20 6 -3 -1 6 -15 20 -14 14 -19 21 -10 16 8 -5 -1 6 -21 25 -19 19 -44 45 -55
59 -19 25 -19 25 1 10 12 -8 5 1 -15 20 -20 19 -27 28 -16 20 19 -14 20 -14 7
3 -17 21 -58 46 -47 28 5 -7 1 -9 -8 -5 -9 3 -13 10 -10 15 3 6 -5 7 -22 3
-19 -5 -25 -4 -20 5 5 7 -6 11 -36 11 l-43 0 3 -160 3 -160 -91 0 -90 0 0 368
0 367 244 0 c134 0 242 -4 239 -9z m1025 -15 c3 -8 0 -11 -6 -7 -13 8 -23 -19
-15 -41 4 -10 2 -14 -4 -10 -14 9 -24 -18 -16 -40 4 -10 2 -14 -4 -10 -14 9
-24 -18 -16 -40 4 -10 2 -14 -4 -10 -14 9 -24 -18 -16 -40 4 -10 2 -14 -4 -10
-14 9 -24 -18 -16 -40 4 -10 2 -14 -4 -10 -14 9 -24 -18 -16 -40 4 -10 2 -14
-4 -10 -14 9 -24 -18 -16 -40 4 -10 2 -14 -4 -10 -14 9 -24 -18 -16 -40 4 -10
2 -14 -4 -10 -14 9 -24 -18 -16 -40 4 -10 2 -14 -4 -10 -14 9 -24 -18 -16 -40
4 -10 2 -14 -4 -10 -14 9 -24 -18 -16 -40 4 -10 2 -14 -4 -10 -14 9 -24 -18
-16 -40 4 -10 2 -14 -4 -10 -14 9 -24 -18 -16 -40 4 -10 2 -14 -4 -10 -13 8
-24 -18 -16 -38 5 -14 -8 -15 -93 -13 -90 3 -99 5 -96 22 2 12 -1 16 -9 10 -9
-5 -10 -2 -6 9 3 10 2 17 -3 17 -5 0 -6 7 -3 17 5 12 3 14 -7 8 -10 -6 -12 -4
-7 8 3 10 2 17 -3 17 -5 0 -6 7 -3 17 5 12 3 14 -7 8 -10 -6 -12 -4 -7 8 3 10
2 17 -3 17 -5 0 -6 7 -3 17 5 12 3 14 -7 8 -10 -6 -12 -4 -7 8 3 10 2 17 -3
17 -5 0 -6 7 -3 17 5 12 3 14 -7 8 -10 -6 -12 -4 -7 8 3 10 2 17 -3 17 -5 0
-6 7 -3 17 5 12 3 14 -7 8 -10 -6 -12 -4 -7 8 3 10 2 17 -3 17 -5 0 -6 7 -3
17 5 12 3 14 -7 8 -10 -6 -12 -4 -7 8 3 10 2 17 -3 17 -5 0 -6 7 -3 17 5 12 3
14 -7 8 -10 -6 -12 -4 -7 8 3 10 2 17 -3 17 -5 0 -6 7 -3 17 5 12 3 14 -7 8
-10 -6 -12 -4 -7 8 3 10 2 17 -3 17 -5 0 -6 7 -3 17 5 12 3 14 -7 8 -10 -6
-12 -4 -7 8 3 10 2 17 -3 17 -5 0 -6 7 -3 17 4 10 2 14 -4 10 -14 -9 -24 18
-16 40 4 10 2 14 -4 10 -14 -9 -24 18 -16 40 4 10 2 14 -4 10 -14 -9 -24 18
-16 40 4 10 2 14 -4 10 -12 -8 -26 20 -17 34 3 5 45 9 94 9 79 0 89 -2 83 -17
-5 -11 -3 -14 6 -8 10 6 11 2 6 -15 -4 -14 -3 -20 3 -16 13 8 23 -19 15 -41
-5 -12 -3 -14 7 -8 10 6 12 4 7 -8 -3 -10 -2 -17 3 -17 5 0 6 -7 3 -17 -5 -11
-3 -14 6 -8 10 6 11 2 6 -15 -4 -14 -3 -20 3 -16 13 8 23 -19 15 -41 -5 -12
-3 -14 7 -8 10 6 12 4 7 -8 -3 -10 -2 -17 3 -17 5 0 6 -7 3 -17 -5 -11 -3 -14
6 -8 10 6 11 2 6 -15 -4 -14 -3 -20 3 -16 13 8 23 -19 15 -41 -5 -12 -3 -14 7
-8 10 6 12 4 7 -8 -3 -10 -2 -17 3 -17 5 0 6 -7 3 -17 -5 -12 -3 -14 7 -8 10
6 12 4 7 -8 -8 -22 2 -49 15 -41 6 4 7 -2 3 -16 -5 -17 -4 -21 6 -15 9 6 11 3
6 -8 -4 -11 -1 -17 8 -17 9 0 12 6 8 17 -5 11 -3 14 6 8 10 -6 11 -2 6 15 -5
16 -4 20 5 15 9 -5 10 -1 5 15 -4 14 -3 20 3 16 13 -8 23 19 15 41 -5 11 -3
14 6 8 10 -6 11 -2 6 15 -5 17 -4 21 6 15 9 -6 11 -3 6 8 -3 10 -2 17 3 17 5
0 6 7 3 17 -5 11 -3 14 6 8 10 -6 11 -2 6 15 -5 17 -4 21 6 15 9 -6 11 -3 6 8
-3 10 -2 17 3 17 5 0 6 7 3 17 -5 11 -3 14 6 8 10 -6 11 -2 6 15 -5 16 -4 20
5 15 9 -5 10 -1 5 15 -5 17 -4 21 6 15 9 -6 11 -3 6 8 -3 10 -2 17 3 17 5 0 6
7 3 17 -5 11 -3 14 6 8 10 -6 11 -2 6 15 -5 17 -4 21 6 15 9 -6 11 -3 6 8 -3
10 -2 17 3 17 5 0 6 7 3 17 -5 12 -3 14 7 8 10 -6 12 -4 7 9 -4 10 -5 21 -3
24 2 4 43 5 92 2 62 -4 89 -9 92 -19z m252 -343 l0 -368 -90 0 -90 0 0 368 0
367 90 0 90 0 0 -367z m-3099 145 c13 -16 12 -17 -3 -4 -17 13 -22 21 -14 21
2 0 10 -8 17 -17z m400 -150 c13 -16 12 -17 -3 -4 -17 13 -22 21 -14 21 2 0
10 -8 17 -17z m1504 -103 c21 -22 37 -40 34 -40 -3 0 -23 18 -44 40 -21 22
-37 40 -34 40 3 0 23 -18 44 -40z m-1910 -90 c10 -11 16 -20 13 -20 -3 0 -13
9 -23 20 -10 11 -16 20 -13 20 3 0 13 -9 23 -20z"/>
<path d="M6649 5743 c-13 -16 -12 -17 4 -4 9 7 17 15 17 17 0 8 -8 3 -21 -13z"/>
<path d="M359 5493 c-13 -16 -12 -17 4 -4 16 13 21 21 13 21 -2 0 -10 -8 -17
-17z"/>
<path d="M329 5453 c-13 -16 -12 -17 4 -4 9 7 17 15 17 17 0 8 -8 3 -21 -13z"/>
<path d="M6429 5453 c-13 -16 -12 -17 4 -4 9 7 17 15 17 17 0 8 -8 3 -21 -13z"/>
<path d="M469 5083 c-13 -16 -12 -17 4 -4 16 13 21 21 13 21 -2 0 -10 -8 -17
-17z"/>
<path d="M439 5043 c-13 -16 -12 -17 4 -4 9 7 17 15 17 17 0 8 -8 3 -21 -13z"/>
<path d="M6539 5043 c-13 -16 -12 -17 4 -4 9 7 17 15 17 17 0 8 -8 3 -21 -13z"/>
<path d="M6509 5003 c-13 -16 -12 -17 4 -4 9 7 17 15 17 17 0 8 -8 3 -21 -13z"/>
<path d="M3349 4623 c-13 -16 -12 -17 4 -4 16 13 21 21 13 21 -2 0 -10 -8 -17
-17z"/>
<path d="M3319 4583 c-13 -16 -12 -17 4 -4 9 7 17 15 17 17 0 8 -8 3 -21 -13z"/>
<path d="M329 4343 c-13 -16 -12 -17 4 -4 9 7 17 15 17 17 0 8 -8 3 -21 -13z"/>
<path d="M6489 4423 c-13 -16 -12 -17 4 -4 16 13 21 21 13 21 -2 0 -10 -8 -17
-17z"/>
<path d="M6459 4383 c-13 -16 -12 -17 4 -4 9 7 17 15 17 17 0 8 -8 3 -21 -13z"/>
<path d="M6429 4343 c-13 -16 -12 -17 4 -4 9 7 17 15 17 17 0 8 -8 3 -21 -13z"/>
<path d="M5870 3755 c13 -14 26 -25 28 -25 3 0 -5 11 -18 25 -13 14 -26 25
-28 25 -3 0 5 -11 18 -25z"/>
<path d="M4969 3653 c-13 -16 -12 -17 4 -4 9 7 17 15 17 17 0 8 -8 3 -21 -13z"/>
<path d="M5750 3379 c0 -7 -10 -9 -26 -5 -19 5 -24 4 -18 -5 5 -8 2 -10 -9 -6
-9 3 -18 0 -21 -9 -3 -8 -12 -14 -19 -12 -8 2 -35 -18 -61 -44 -43 -44 -59
-67 -36 -53 6 3 7 -1 4 -9 -3 -9 -10 -14 -14 -11 -11 7 -20 -22 -13 -42 4 -11
3 -14 -6 -9 -9 6 -10 0 -5 -20 4 -16 3 -25 -2 -21 -6 3 -10 -26 -10 -69 0 -41
4 -74 9 -74 5 0 5 -9 2 -20 -4 -12 -2 -20 5 -20 7 0 9 -7 6 -16 -4 -10 -2 -13
6 -8 8 5 9 2 5 -9 -3 -10 -2 -17 3 -17 5 0 14 -10 21 -21 9 -17 8 -20 -3 -14
-7 5 5 -9 28 -31 22 -21 26 -28 10 -14 l-31 25 25 -28 c29 -34 67 -57 55 -35
-3 7 -1 6 7 -3 7 -9 19 -14 27 -11 9 3 11 0 6 -8 -5 -9 -2 -10 15 -5 13 4 20
3 17 -2 -3 -5 19 -9 48 -9 29 0 51 4 48 9 -3 5 4 6 17 2 14 -4 20 -3 17 2 -4
6 5 15 19 22 20 9 24 9 18 -1 -4 -7 8 3 27 23 19 19 27 26 19 14 -8 -12 -1 -6
17 13 20 21 29 40 26 50 -5 11 -3 13 7 7 8 -5 11 -4 7 3 -10 14 3 43 15 36 6
-4 7 2 3 16 -5 16 -4 20 4 15 8 -5 10 1 5 19 -3 15 -2 26 4 26 5 0 10 29 10
65 0 41 -4 62 -11 58 -6 -4 -8 4 -3 21 4 16 2 26 -5 26 -6 0 -9 7 -5 15 3 8 1
15 -4 15 -5 0 -7 6 -4 14 3 9 -16 36 -48 68 -30 29 -36 37 -13 18 l40 -35 -35
38 c-35 38 -80 71 -66 48 5 -8 0 -8 -18 0 -14 7 -23 16 -20 21 3 5 -6 6 -20 2
-16 -4 -26 -2 -26 5 0 6 -11 11 -25 11 -14 0 -25 -5 -25 -11z m-150 -93 c0 -2
-8 -10 -17 -17 -16 -13 -17 -12 -4 4 13 16 21 21 21 13z"/>
<path d="M2900 3655 c13 -14 26 -25 28 -25 3 0 -5 11 -18 25 -13 14 -26 25
-28 25 -3 0 5 -11 18 -25z"/>
<path d="M2220 3429 c0 -7 -11 -9 -30 -5 -21 4 -29 2 -24 -5 4 -8 -1 -9 -16
-4 -14 4 -20 3 -17 -2 4 -6 -5 -15 -19 -22 -20 -9 -24 -9 -18 1 11 17 -43 -18
-78 -49 -14 -14 -24 -31 -22 -38 3 -6 -3 -18 -13 -26 -17 -13 -17 -13 -3 6 14
19 14 19 -2 6 -10 -7 -16 -17 -13 -21 8 -12 -6 -41 -16 -34 -9 5 -11 0 -13
-28 -1 -7 -5 -16 -11 -20 -5 -4 142 -8 328 -8 198 0 337 4 337 9 0 18 -12 41
-20 36 -4 -2 -12 7 -19 21 -9 20 -9 24 1 19 7 -4 2 3 -12 16 -14 13 -19 20
-10 14 8 -5 -5 11 -29 37 -24 25 -49 44 -55 42 -6 -2 -20 3 -31 12 -11 8 -14
12 -6 8 10 -5 12 -3 7 5 -5 7 -14 10 -22 7 -8 -3 -14 -1 -14 5 0 6 -9 8 -21 4
-14 -5 -19 -3 -15 4 5 7 -3 9 -24 5 -19 -4 -30 -2 -30 5 0 6 -16 11 -35 11
-19 0 -35 -5 -35 -11z m255 -79 c10 -11 16 -20 13 -20 -3 0 -13 9 -23 20 -10
11 -16 20 -13 20 3 0 13 -9 23 -20z m-425 7 c0 -2 -12 -14 -27 -28 l-28 -24
24 28 c23 25 31 32 31 24z"/>
<path d="M2070 2737 c0 -2 15 -16 33 -33 l32 -29 -29 33 c-28 30 -36 37 -36
29z"/>
<path d="M1600 2355 c13 -14 26 -25 28 -25 3 0 -5 11 -18 25 -13 14 -26 25
-28 25 -3 0 5 -11 18 -25z"/>
<path d="M3110 1876 c0 -2 8 -10 18 -17 15 -13 16 -12 3 4 -13 16 -21 21 -21
13z"/>
<path d="M2654 1848 l-19 -23 23 19 c12 11 22 21 22 23 0 8 -8 2 -26 -19z"/>
<path d="M2630 1627 c0 -2 15 -16 33 -33 l32 -29 -29 33 c-28 30 -36 37 -36
29z"/>
<path d="M2620 1287 c0 -2 15 -16 33 -33 l32 -29 -29 33 c-28 30 -36 37 -36
29z"/>
<path d="M6200 1345 c13 -14 26 -25 28 -25 3 0 -5 11 -18 25 -13 14 -26 25
-28 25 -3 0 5 -11 18 -25z"/>
<path d="M6609 1273 c-13 -16 -12 -17 4 -4 9 7 17 15 17 17 0 8 -8 3 -21 -13z"/>
<path d="M4305 1700 l0 -100 103 0 c69 0 102 4 102 11 0 8 13 10 38 5 31 -5
40 -2 55 17 10 12 15 16 11 8 -4 -9 -3 -12 4 -7 6 4 8 14 5 23 -4 9 -2 14 3
10 5 -3 9 12 9 33 0 21 -4 36 -9 33 -5 -4 -7 1 -3 9 7 20 -11 38 -31 31 -10
-4 -13 -2 -8 6 6 9 1 10 -18 5 -16 -4 -26 -2 -26 5 0 7 -38 11 -117 11 l-118
0 0 -100z"/>
<path d="M4540 1366 c0 -2 8 -10 18 -17 15 -13 16 -12 3 4 -13 16 -21 21 -21
13z"/>
</g>
</svg>
